<svg xmlns="http://www.w3.org/2000/svg" viewBox="0 0 16 16" fill="none">
  <path d="M8 5.5a2.5 2.5 0 1 0 0 5 2.5 2.5 0 0 0 0-5Z" stroke="#C5C5C5" stroke-width="1.3"/>
  <path d="M13.5 8a5.7 5.7 0 0 0-.06-.82l1.32-1.03-1.25-2.17-1.58.47a5.6 5.6 0 0 0-1.42-.82L10.25 2h-2.5l-.26 1.63c-.5.18-.97.45-1.4.8l-1.6-.45-1.25 2.17 1.31 1.03A5.8 5.8 0 0 0 4.5 8c0 .28.02.55.06.82L3.25 9.85l1.25 2.17 1.6-.45c.42.34.89.61 1.39.79L7.75 14h2.5l.26-1.64c.5-.18.97-.45 1.4-.8l1.59.46 1.25-2.17-1.31-1.03c.04-.27.06-.54.06-.82Z" stroke="#C5C5C5" stroke-width="1.1" stroke-linejoin="round"/>
</svg>
